<?xml version="1.0" encoding="utf-8"?>
<!-- Generator: Adobe Illustrator 23.0.3, SVG Export Plug-In . SVG Version: 6.00 Build 0)  -->
<svg version="1.1" id="Layer_1" xmlns="http://www.w3.org/2000/svg" xmlns:xlink="http://www.w3.org/1999/xlink" x="0px" y="0px"
	 viewBox="0 0 512 512" style="enable-background:new 0 0 512 512;" xml:space="preserve">
<style type="text/css">
	.st0{fill:#1D1D1D;}
	.st1{fill:#1E1E1E;}
	.st2{fill:#1F1F1F;}
	.st3{fill:#1C1C1C;}
	.st4{fill:#202020;}
	.st5{fill:#232323;}
	.st6{fill:#222222;}
	.st7{fill:#212121;}
	.st8{fill:#2A2A2A;}
	.st9{fill:#252525;}
	.st10{fill:#272727;}
</style>
<g>
	<path class="st0" d="M444.5,161.9c0,10-2.1,17.8-5.1,25.5c-46.8,119.9-130.1,203.3-249.9,250.2c-25.1,9.8-47,5.4-65.9-13.6
		c-15-15.1-30.2-30-44.8-45.5c-17.1-18.3-14.3-39.6,6.9-52c19.3-11.3,39-21.7,58.5-32.7c7.3-4.1,14.6-6.3,19.7,2.7
		c5.3,9.4-1.5,14-8.4,17.9c-18,10.2-36,20.4-54.3,30.1c-10,5.3-13.3,10.4-3.8,19.5c15.3,14.8,29.9,30.3,45.1,45.2
		c9.8,9.6,21.6,12.6,34.7,7.6c116.8-44.4,197.5-125,241.8-241.9c4.9-13.1,1.8-24.8-7.9-34.5c-14.3-14.3-29-28.2-43.2-42.5
		c-7.6-7.6-12.8-6.3-17.6,2.8c-11.2,21.2-22.5,42.3-33.9,63.4c-4.2,7.7-8.4,17.2-19.6,10.5c-9.8-5.9-5.2-14-1.3-21.4
		c11.3-21.1,22.6-42.3,34.2-63.3c13.5-24.3,34.8-27.6,54.8-8.6c14.2,13.6,28.1,27.4,42.3,41.1C438.1,133.9,443.6,147.6,444.5,161.9z
		"/>
	<path class="st1" d="M354.8,223.5c-0.9,2.3-1.6,5.6-3.4,8.2c-32.3,50.2-73.2,91.9-123.3,124.5c-7.5,4.9-15,4.4-18.9-4.7
		c-2.8-6.4,0.8-11.4,6.4-15.1c47.1-31,85.8-70.4,116.4-117.7c3.6-5.5,8.3-8.5,15.2-6C352,214.4,353.8,218.1,354.8,223.5z"/>
</g>
</svg>
